<?xml version="1.0" standalone="no"?>
<!DOCTYPE svg PUBLIC "-//W3C//DTD SVG 20010904//EN"
 "http://www.w3.org/TR/2001/REC-SVG-20010904/DTD/svg10.dtd">
<svg version="1.0" xmlns="http://www.w3.org/2000/svg"
 width="576.000000pt" height="576.000000pt" viewBox="0 0 576.000000 576.000000"
 preserveAspectRatio="xMidYMid meet">
<metadata>
Created by potrace 1.11, written by Peter Selinger 2001-2013
</metadata>
<g transform="translate(0.000000,576.000000) scale(0.100000,-0.100000)"
fill="#000000" stroke="none">
<path d="M235 4880 c-3 -5 -1 -10 4 -10 6 0 11 5 11 10 0 6 -2 10 -4 10 -3 0
-8 -4 -11 -10z"/>
<path d="M2361 4836 c-12 -14 -5 -26 16 -26 15 0 18 26 4 34 -5 3 -14 0 -20
-8z"/>
<path d="M3362 4819 l-22 -28 32 16 c18 9 34 17 36 18 1 1 -3 7 -10 12 -10 8
-19 3 -36 -18z"/>
<path d="M2186 4794 c-4 -15 -11 -22 -18 -18 -6 4 -8 3 -5 -3 10 -15 -42 -72
-62 -68 -13 2 -17 -3 -16 -18 3 -29 -15 -62 -64 -125 -23 -28 -41 -56 -41 -61
0 -5 -3 -11 -7 -13 -9 -3 -78 -94 -132 -173 -19 -27 -38 -54 -43 -60 -5 -5
-51 -68 -103 -140 -52 -71 -98 -134 -102 -140 -5 -5 -31 -41 -58 -80 -27 -38
-57 -79 -67 -89 -10 -11 -18 -23 -18 -27 0 -4 -6 -14 -13 -21 -7 -7 -52 -69
-101 -138 -108 -151 -124 -170 -148 -170 -10 0 -18 -4 -18 -10 0 -6 -93 -10
-260 -10 -167 0 -260 4 -260 10 0 6 -11 10 -25 10 -14 0 -25 -5 -25 -11 0 -7
-18 -10 -47 -7 -28 2 -48 -1 -48 -7 0 -5 11 -9 25 -8 22 2 23 2 5 -6 -29 -12
-105 -91 -105 -108 0 -8 -5 -11 -11 -7 -8 5 -10 -1 -7 -19 3 -16 0 -28 -8 -31
-18 -7 -18 -56 -1 -56 8 0 13 -15 14 -40 2 -29 -2 -40 -13 -40 -8 0 -14 -10
-14 -25 0 -14 3 -25 8 -25 4 0 12 -11 19 -25 6 -14 7 -23 2 -19 -5 3 -9 0 -9
-5 0 -6 4 -11 10 -11 5 0 21 -17 34 -39 23 -37 102 -91 132 -91 8 0 14 -4 14
-10 0 -14 48 -12 52 2 4 10 9 9 20 -3 19 -19 25 -39 33 -109 6 -52 8 -69 19
-137 5 -28 55 -383 62 -436 3 -27 42 -290 49 -337 2 -14 7 -47 10 -74 3 -27 8
-59 10 -70 3 -12 7 -41 9 -66 3 -25 8 -63 12 -85 23 -140 30 -205 22 -205 -13
0 -9 -40 6 -55 7 -8 15 -12 17 -10 2 2 5 -18 5 -43 2 -40 9 -127 13 -142 1 -2
5 0 11 6 6 6 4 27 -5 58 -18 61 -13 70 11 20 26 -54 112 -138 175 -169 30 -15
63 -35 73 -44 11 -9 16 -10 12 -4 -4 7 -2 13 3 13 6 0 11 -4 11 -8 0 -5 13 -7
29 -6 16 1 32 -4 34 -10 6 -16 46 -14 56 2 4 6 24 10 44 9 20 -2 37 1 37 6 0
6 5 6 13 0 10 -8 221 -10 252 -3 6 1 15 1 20 0 28 -6 145 -4 145 3 0 5 5 5 11
1 11 -6 91 -9 114 -4 6 1 12 1 15 0 16 -6 110 -4 110 3 0 4 6 5 13 0 17 -11
60 -11 75 0 7 6 12 6 12 0 0 -5 23 -9 50 -9 28 0 50 4 50 9 0 4 5 5 12 1 17
-11 91 -11 106 0 7 5 12 5 12 0 0 -10 203 -10 219 0 5 4 12 3 15 -2 4 -7 109
-8 141 -2 6 1 12 1 15 0 16 -6 160 -4 160 3 0 5 5 5 12 1 17 -11 108 -11 108
-1 0 5 6 5 13 0 16 -10 88 -11 108 -1 9 4 19 4 23 1 10 -11 96 -11 96 -1 0 5
6 6 12 2 17 -11 258 -11 258 -1 0 5 5 5 12 1 16 -10 148 -12 148 -2 0 4 10 4
23 0 30 -10 89 -8 106 2 9 6 12 5 8 -1 -4 -7 14 -9 51 -6 31 2 63 3 70 3 11 0
56 0 85 0 6 0 30 -1 52 -3 22 -2 46 1 53 6 7 6 12 6 12 1 0 -5 18 -9 40 -9 22
0 40 3 40 8 0 4 8 4 18 -1 9 -5 29 -7 45 -6 17 2 27 -2 27 -10 0 -17 49 -15
59 2 5 8 19 11 34 8 15 -3 27 0 27 5 0 5 3 8 8 7 4 -1 24 6 46 15 21 9 41 17
45 17 11 0 51 32 105 85 56 56 80 91 71 105 -4 6 -4 10 0 10 3 0 10 -10 16
-22 8 -21 9 -20 4 5 -3 16 -2 26 2 24 8 -5 13 15 16 60 0 7 6 14 14 17 14 6
18 56 4 56 -5 0 -5 19 0 44 4 24 10 66 13 92 3 27 7 60 10 74 2 14 7 48 11 75
7 58 24 169 31 205 3 14 7 43 9 65 2 22 6 55 9 73 3 18 10 69 16 115 18 130
20 147 35 242 14 90 33 225 60 425 7 54 20 97 33 110 12 11 16 12 20 2 5 -15
52 -16 52 -1 0 7 18 10 50 7 30 -2 49 1 47 7 -1 6 -13 9 -27 8 l-25 -2 25 11
c33 16 89 77 96 106 4 12 10 22 15 22 5 0 9 9 9 20 0 11 5 20 10 20 6 0 10 11
10 25 0 15 -6 25 -14 25 -10 0 -14 12 -13 40 1 26 6 40 14 40 18 0 16 47 -3
54 -8 3 -13 10 -9 15 14 24 -69 129 -120 152 -15 7 -11 7 14 3 25 -5 32 -3 29
7 -3 10 -19 13 -56 11 -33 -3 -52 0 -52 7 0 6 -11 11 -25 11 -14 0 -25 -4 -25
-10 0 -6 -93 -10 -260 -10 -167 0 -260 4 -260 10 0 6 -11 10 -24 10 -13 0 -26
6 -29 13 -5 12 -213 300 -484 667 -83 113 -301 415 -326 450 -9 14 -24 35 -34
48 -9 13 -18 33 -19 45 -1 12 -3 25 -3 29 -1 5 -4 7 -8 7 -26 -4 -41 5 -57 36
-11 19 -23 35 -29 35 -5 0 -7 7 -4 15 8 18 -11 31 -26 16 -7 -7 -3 -16 16 -31
15 -12 27 -26 27 -32 0 -6 -8 -4 -17 4 -31 26 -105 45 -163 41 -30 -2 -62 -4
-70 -5 -8 0 -20 -5 -26 -9 -6 -5 -23 -10 -38 -11 -20 -2 -31 -11 -43 -35 -8
-18 -22 -33 -30 -33 -7 0 -13 -6 -12 -12 1 -7 -6 -31 -16 -53 -13 -28 -19 -64
-20 -117 0 -60 -3 -74 -12 -66 -7 6 -13 16 -13 23 0 7 -7 15 -15 19 -11 4 -14
-1 -13 -18 1 -13 7 -22 13 -19 17 6 65 -68 65 -100 0 -20 5 -27 20 -27 13 0
39 -27 79 -82 32 -46 71 -97 85 -114 14 -18 26 -36 26 -42 0 -6 4 -12 8 -14 4
-1 23 -25 42 -53 19 -27 40 -56 47 -63 7 -7 20 -26 30 -42 9 -17 21 -30 25
-30 4 0 8 -7 8 -15 0 -8 5 -15 10 -15 6 0 10 -7 10 -15 0 -8 3 -15 8 -15 4 0
18 -17 32 -38 14 -20 27 -39 30 -42 3 -3 38 -50 78 -105 39 -55 75 -105 79
-110 40 -51 63 -85 63 -94 0 -8 -292 -11 -980 -11 -672 0 -980 3 -980 10 0 10
30 57 55 86 6 7 35 47 65 89 30 42 80 111 111 153 31 42 136 186 233 320 118
162 183 242 195 242 14 0 20 10 24 40 4 29 15 49 43 75 27 26 34 39 27 46 -8
8 -16 1 -30 -25 l-18 -36 2 80 c2 67 -2 86 -22 125 -25 47 -17 63 11 21 8 -14
22 -22 29 -20 16 7 8 37 -9 31 -17 -6 -90 52 -96 75 -4 15 -15 23 -35 25 -17
2 -43 13 -60 25 -21 16 -26 17 -16 5 13 -16 12 -17 -10 -9 -49 17 -152 3 -197
-26 -32 -21 -38 -8 -8 16 30 23 31 28 12 35 -9 4 -16 -3 -20 -19z m-291 -1934
c-4 -6 6 -10 24 -10 16 0 31 5 33 11 4 12 108 -29 108 -42 0 -3 11 -19 24 -34
30 -34 42 -75 26 -85 -14 -9 -9 -56 5 -53 15 2 12 -900 -3 -905 -15 -5 -16
-49 -1 -54 9 -3 9 -13 0 -38 -14 -43 -56 -94 -70 -85 -6 3 -9 0 -5 -8 6 -16
-69 -42 -88 -31 -17 11 -57 11 -51 1 7 -11 -48 -2 -74 12 -31 16 -82 78 -89
108 -4 14 -3 33 3 42 10 18 6 51 -6 51 -5 0 -9 202 -9 450 0 352 3 452 13 460
13 11 9 50 -5 50 -15 0 12 67 40 99 38 43 147 96 125 61z m960 0 c-4 -6 6 -10
24 -10 16 0 31 5 33 11 5 16 70 -13 108 -50 33 -31 65 -103 49 -109 -5 -2 -9
-17 -9 -33 0 -17 4 -28 10 -24 6 4 10 -155 10 -450 0 -290 -4 -455 -10 -455
-14 0 -12 -48 2 -52 21 -7 -37 -110 -78 -138 -37 -24 -84 -37 -84 -23 0 5 -13
8 -29 8 -16 1 -27 -3 -25 -7 9 -14 -34 -9 -70 9 -19 9 -48 35 -64 57 -32 45
-49 96 -32 96 5 0 10 11 10 25 0 14 -4 25 -10 25 -7 0 -10 158 -10 455 0 297
3 455 10 455 14 0 13 47 -1 52 -15 5 14 74 44 107 33 36 141 81 122 51z m955
0 c0 -5 14 -10 31 -10 20 0 28 4 23 11 -10 17 43 2 83 -22 37 -23 65 -60 81
-106 8 -24 8 -33 -1 -36 -15 -5 -15 -38 0 -54 14 -16 16 -882 2 -899 -14 -17
-19 -54 -8 -54 14 0 11 -37 -5 -68 -16 -31 -61 -74 -93 -91 -24 -12 -67 -15
-60 -3 3 4 -8 7 -24 7 -16 0 -29 -3 -29 -7 0 -27 -82 11 -122 55 -33 36 -57
99 -39 105 14 5 15 49 0 54 -13 4 -18 326 -5 346 4 7 3 12 -1 12 -10 0 -9 53
2 69 3 6 3 11 -2 11 -13 0 -8 449 5 462 16 16 15 55 0 60 -18 6 17 79 56 116
39 37 106 64 106 42z"/>
<path d="M2950 1679 c0 -5 5 -7 10 -4 6 3 10 8 10 11 0 2 -4 4 -10 4 -5 0 -10
-5 -10 -11z"/>
<path d="M3153 4670 c-23 -9 -30 -25 -15 -34 4 -2 17 7 29 20 23 26 21 28 -14
14z"/>
<path d="M405 3340 c-8 -13 4 -32 16 -25 12 8 12 35 0 35 -6 0 -13 -4 -16 -10z"/>
<path d="M5334 3342 c-7 -5 -7 -14 2 -30 l11 -23 6 23 c7 25 -3 41 -19 30z"/>
<path d="M5335 2987 c-8 -31 0 -46 15 -31 7 7 7 19 1 35 l-9 24 -7 -28z"/>
<path d="M404 2979 c-8 -14 11 -33 25 -25 11 7 4 36 -9 36 -5 0 -12 -5 -16
-11z"/>
<path d="M495 2881 c-8 -14 8 -21 34 -14 17 4 19 8 9 14 -17 11 -35 11 -43 0z"/>
<path d="M4810 1131 c-13 -26 -13 -31 5 -31 10 0 14 9 13 25 -3 30 -4 31 -18
6z"/>
<path d="M1105 970 c-9 -15 5 -32 18 -22 7 5 24 8 39 7 15 -1 25 2 23 6 -3 4
-13 6 -23 4 -9 -1 -25 2 -34 6 -10 6 -19 5 -23 -1z"/>
<path d="M4630 970 c-12 -8 -12 -10 3 -16 21 -8 35 2 21 16 -5 5 -15 6 -24 0z"/>
<path d="M4580 966 c0 -2 7 -6 15 -10 8 -3 15 -1 15 4 0 6 -7 10 -15 10 -8 0
-15 -2 -15 -4z"/>
</g>
</svg>
